<mxfile host="65bd71144e">
    <diagram name="Page-1" id="0rsDAdrBQstYXks9k8pK">
        <mxGraphModel dx="844" dy="525" grid="1" gridSize="10" guides="1" tooltips="1" connect="1" arrows="1" fold="1" page="1" pageScale="1" pageWidth="827" pageHeight="1169" math="0" shadow="0">
            <root>
                <mxCell id="0"/>
                <mxCell id="1" parent="0"/>
                <mxCell id="m3gavzZ5vnZOq6Y1aLQd-33" value="" style="edgeStyle=orthogonalEdgeStyle;rounded=0;orthogonalLoop=1;jettySize=auto;html=1;entryX=0.5;entryY=0;entryDx=0;entryDy=0;" parent="1" target="m3gavzZ5vnZOq6Y1aLQd-27" edge="1">
                    <mxGeometry relative="1" as="geometry">
                        <mxPoint x="414" y="410" as="sourcePoint"/>
                    </mxGeometry>
                </mxCell>
                <mxCell id="m3gavzZ5vnZOq6Y1aLQd-23" value="" style="rounded=1;whiteSpace=wrap;html=1;fillColor=none;strokeColor=default;dashed=1;dashPattern=8 8;" parent="1" vertex="1">
                    <mxGeometry x="344" y="210" width="160" height="170" as="geometry"/>
                </mxCell>
                <mxCell id="m3gavzZ5vnZOq6Y1aLQd-29" value="" style="edgeStyle=orthogonalEdgeStyle;rounded=0;orthogonalLoop=1;jettySize=auto;html=1;" parent="1" source="m3gavzZ5vnZOq6Y1aLQd-1" target="m3gavzZ5vnZOq6Y1aLQd-4" edge="1">
                    <mxGeometry relative="1" as="geometry"/>
                </mxCell>
                <mxCell id="m3gavzZ5vnZOq6Y1aLQd-1" value="Specify background_t, window_size" style="rounded=1;whiteSpace=wrap;html=1;" parent="1" vertex="1">
                    <mxGeometry x="329" y="60" width="169" height="30" as="geometry"/>
                </mxCell>
                <mxCell id="m3gavzZ5vnZOq6Y1aLQd-31" style="edgeStyle=orthogonalEdgeStyle;rounded=0;orthogonalLoop=1;jettySize=auto;html=1;exitX=0.5;exitY=1;exitDx=0;exitDy=0;" parent="1" source="m3gavzZ5vnZOq6Y1aLQd-4" edge="1">
                    <mxGeometry relative="1" as="geometry">
                        <mxPoint x="414" y="190" as="targetPoint"/>
                    </mxGeometry>
                </mxCell>
                <mxCell id="m3gavzZ5vnZOq6Y1aLQd-4" value="Dataset sorted by timestamp" style="rounded=1;whiteSpace=wrap;html=1;" parent="1" vertex="1">
                    <mxGeometry x="329" y="130" width="169" height="30" as="geometry"/>
                </mxCell>
                <mxCell id="m3gavzZ5vnZOq6Y1aLQd-7" value="" style="shape=link;html=1;rounded=0;width=208.33333333333334;" parent="1" edge="1">
                    <mxGeometry width="100" relative="1" as="geometry">
                        <mxPoint x="175" y="300" as="sourcePoint"/>
                        <mxPoint x="724" y="300" as="targetPoint"/>
                    </mxGeometry>
                </mxCell>
                <mxCell id="m3gavzZ5vnZOq6Y1aLQd-8" value="background_data" style="rounded=1;whiteSpace=wrap;html=1;" parent="1" vertex="1">
                    <mxGeometry x="184" y="210" width="139" height="30" as="geometry"/>
                </mxCell>
                <mxCell id="m3gavzZ5vnZOq6Y1aLQd-9" value="ground_truth_data" style="rounded=1;whiteSpace=wrap;html=1;" parent="1" vertex="1">
                    <mxGeometry x="354" y="250" width="139" height="30" as="geometry"/>
                </mxCell>
                <mxCell id="m3gavzZ5vnZOq6Y1aLQd-10" value="ground_truth_data" style="rounded=1;whiteSpace=wrap;html=1;" parent="1" vertex="1">
                    <mxGeometry x="354" y="290" width="139" height="30" as="geometry"/>
                </mxCell>
                <mxCell id="m3gavzZ5vnZOq6Y1aLQd-11" value="ground_truth_data" style="rounded=1;whiteSpace=wrap;html=1;" parent="1" vertex="1">
                    <mxGeometry x="354" y="330" width="139" height="30" as="geometry"/>
                </mxCell>
                <mxCell id="m3gavzZ5vnZOq6Y1aLQd-12" value="unlabelled_data" style="rounded=1;whiteSpace=wrap;html=1;" parent="1" vertex="1">
                    <mxGeometry x="524" y="250" width="139" height="30" as="geometry"/>
                </mxCell>
                <mxCell id="m3gavzZ5vnZOq6Y1aLQd-13" value="unlabelled_data" style="rounded=1;whiteSpace=wrap;html=1;" parent="1" vertex="1">
                    <mxGeometry x="524" y="290" width="139" height="30" as="geometry"/>
                </mxCell>
                <mxCell id="m3gavzZ5vnZOq6Y1aLQd-14" value="unlabelled_data" style="rounded=1;whiteSpace=wrap;html=1;" parent="1" vertex="1">
                    <mxGeometry x="524" y="330" width="139" height="30" as="geometry"/>
                </mxCell>
                <mxCell id="m3gavzZ5vnZOq6Y1aLQd-17" value="" style="endArrow=classic;html=1;rounded=0;" parent="1" edge="1">
                    <mxGeometry width="50" height="50" relative="1" as="geometry">
                        <mxPoint x="154" y="210" as="sourcePoint"/>
                        <mxPoint x="154" y="390" as="targetPoint"/>
                    </mxGeometry>
                </mxCell>
                <mxCell id="m3gavzZ5vnZOq6Y1aLQd-19" value="Jan" style="text;html=1;align=center;verticalAlign=middle;whiteSpace=wrap;rounded=0;" parent="1" vertex="1">
                    <mxGeometry x="104" y="210" width="60" height="30" as="geometry"/>
                </mxCell>
                <mxCell id="m3gavzZ5vnZOq6Y1aLQd-20" value="Feb" style="text;html=1;align=center;verticalAlign=middle;whiteSpace=wrap;rounded=0;" parent="1" vertex="1">
                    <mxGeometry x="104" y="250" width="60" height="30" as="geometry"/>
                </mxCell>
                <mxCell id="m3gavzZ5vnZOq6Y1aLQd-21" value="Mar" style="text;html=1;align=center;verticalAlign=middle;whiteSpace=wrap;rounded=0;" parent="1" vertex="1">
                    <mxGeometry x="104" y="290" width="60" height="30" as="geometry"/>
                </mxCell>
                <mxCell id="m3gavzZ5vnZOq6Y1aLQd-22" value="Apr" style="text;html=1;align=center;verticalAlign=middle;whiteSpace=wrap;rounded=0;" parent="1" vertex="1">
                    <mxGeometry x="104" y="330" width="60" height="30" as="geometry"/>
                </mxCell>
                <mxCell id="m3gavzZ5vnZOq6Y1aLQd-24" value="" style="rounded=1;whiteSpace=wrap;html=1;fillColor=none;strokeColor=default;dashed=1;dashPattern=8 8;" parent="1" vertex="1">
                    <mxGeometry x="513.5" y="210" width="160" height="170" as="geometry"/>
                </mxCell>
                <mxCell id="m3gavzZ5vnZOq6Y1aLQd-25" value="List of ground_truth_data" style="text;html=1;align=center;verticalAlign=middle;whiteSpace=wrap;rounded=0;" parent="1" vertex="1">
                    <mxGeometry x="354" y="210" width="140" height="30" as="geometry"/>
                </mxCell>
                <mxCell id="m3gavzZ5vnZOq6Y1aLQd-26" value="List of unlabelled_data" style="text;html=1;align=center;verticalAlign=middle;whiteSpace=wrap;rounded=0;" parent="1" vertex="1">
                    <mxGeometry x="524" y="210" width="140" height="30" as="geometry"/>
                </mxCell>
                <mxCell id="m3gavzZ5vnZOq6Y1aLQd-32" value="" style="edgeStyle=orthogonalEdgeStyle;rounded=0;orthogonalLoop=1;jettySize=auto;html=1;" parent="1" source="m3gavzZ5vnZOq6Y1aLQd-27" target="m3gavzZ5vnZOq6Y1aLQd-28" edge="1">
                    <mxGeometry relative="1" as="geometry"/>
                </mxCell>
                <mxCell id="m3gavzZ5vnZOq6Y1aLQd-27" value="Data stored in setting object" style="rounded=1;whiteSpace=wrap;html=1;" parent="1" vertex="1">
                    <mxGeometry x="329" y="440" width="169" height="30" as="geometry"/>
                </mxCell>
                <mxCell id="m3gavzZ5vnZOq6Y1aLQd-28" value="Setting object provides API calls for model to obtain data" style="rounded=1;whiteSpace=wrap;html=1;" parent="1" vertex="1">
                    <mxGeometry x="329" y="490" width="169" height="40" as="geometry"/>
                </mxCell>
            </root>
        </mxGraphModel>
    </diagram>
</mxfile>